# xmcd
#
# Track frame offsets:
#	150
#	13912
#	27459
#	42672
#	58256
#	77874
#	93034
#	112764
#	127486
#	143118
#	158086
#	174518
#	188658
#	205672
#	219312
#	232583
#
# Disc length: 3277 seconds
#
# Revision: 1
# Processed by: cddbd v1.5.2PL0 Copyright (c) Steve Scherf et al.
# Submitted via: audiograbber 1.83.01
#
DISCID=d60ccb10
DTITLE=GENIVAL LACERDA - CANTA LUIZ GONZAGA
DYEAR=1900
DGENRE=FORRÓ
TTITLE0=PENERÔ XERÊM
TTITLE1=SÃO JOÃO DO CANEIRINHO
TTITLE2=PENSE NÈU(FAGNER)
TTITLE3=BALANCE EU
TTITLE4=NEM SE DESPEDIU DE MIM(ELBA)
TTITLE5=FACILITA(CHICO CÉSAR)
TTITLE6=FORRÓ NO ESCURO(DOMINGUINHOS)
TTITLE7=RIACHO DO NAVIO
TTITLE8=ÓIA EU AQUI DE NOVO(JOÃO LACERDA)
TTITLE9=DEIXA A TANGA VOAR(FRANK AGUIAR)
TTITLE10=BAIÃO DA GAROA(THAIS JURITÍ)
TTITLE11=VOZES DA SECA(FLÁVIO JOSÉ)
TTITLE12=A VIDA DO VIAJANTE(CARLOS ANDRÉ)
TTITLE13=MEU DEDO MINDINHO
TTITLE14=FORRÓ NÚMERO 1
TTITLE15=OVO DE CODORNA
EXTD=
EXTT0=
EXTT1=
EXTT2=
EXTT3=
EXTT4=
EXTT5=
EXTT6=
EXTT7=
EXTT8=
EXTT9=
EXTT10=
EXTT11=
EXTT12=
EXTT13=
EXTT14=
EXTT15=
PLAYORDER=
